Coordinates

Units are S.I. units (second, meters, Newtons, ...)
If the header above contains a line with 'inDegrees', this indicates whether rotational values are in degrees (yes) or radians (no).

inDegrees=no
nColumns=21
nRows=10
DataType=double
version=3
OpenSimVersion=4.6-2026-03-31-d6972f9e6
endheader
time	/jointset/ground_pelvis/pelvis_tilt/value	/jointset/ground_pelvis/pelvis_list/value	/jointset/ground_pelvis/pelvis_rotation/value	/jointset/ground_pelvis/pelvis_tx/value	/jointset/ground_pelvis/pelvis_ty/value	/jointset/ground_pelvis/pelvis_tz/value	/jointset/hip_r/hip_flexion_r/value	/jointset/hip_r/hip_adduction_r/value	/jointset/hip_r/hip_rotation_r/value	/jointset/walker_knee_r/knee_angle_r/value	/jointset/patellofemoral_r/knee_angle_r_beta/value	/jointset/ankle_r/ankle_angle_r/value	/jointset/subtalar_r/subtalar_angle_r/value	/jointset/hip_l/hip_flexion_l/value	/jointset/hip_l/hip_adduction_l/value	/jointset/hip_l/hip_rotation_l/value	/jointset/walker_knee_l/knee_angle_l/value	/jointset/patellofemoral_l/knee_angle_l_beta/value	/jointset/ankle_l/ankle_angle_l/value	/jointset/subtalar_l/subtalar_angle_l/value
139.996	0.07360952335131901	-0.1999240428762333	1.354136557515356	0.8432287100000475	0.9645449000000617	-1.209802090000072	0.4841387331796056	0.2073421807148677	0.2082968943161993	0.5878669922330247	0.5878669900000398	0.1509520982784745	-0.4902165920194574	0.06924447967575569	-0.2280743929318055	-0.1917513105392357	1.195423509586164	1.195423510000079	-0.5089176286247041	-0.6631449899608586
140	0.08263360589300155	-0.2027083708902077	1.349707015157453	0.8437108613169105	0.9627777913612521	-1.208777501103886	0.4798097608567672	0.2178792575760927	0.2094623185858257	0.6000037012027944	0.6000036991200461	0.1643138634866123	-0.4874295111940857	0.0847647680023603	-0.2458097484787758	-0.1941555381107097	1.219716326048422	1.219716326369011	-0.4868509485722681	-0.6650465702799866
140.004	0.09148296927982563	-0.205430689513947	1.345418721041411	0.844173322014234	0.9610449495067825	-1.207766533232494	0.4753297721749477	0.2281256428974612	0.2106004344003513	0.6118380356412852	0.6118380337018662	0.1776150764753849	-0.4845760575635688	0.1003209826200496	-0.2632391429801708	-0.1963514071476957	1.243691046357488	1.243691046583896	-0.4649783147529215	-0.6668913496115615
140.008	0.09998723736007085	-0.2080298365212056	1.341408999829122	0.8445970721054338	0.9593800098290206	-1.206782468283736	0.4705503471486862	0.2377989564569555	0.2116845192359137	0.6230746649498571	0.6230746631409622	0.1907940306022543	-0.481595128004474	0.1159465073280892	-0.2800635272062514	-0.1981407110865507	1.267036760299739	1.267036760430816	-0.4434870465464211	-0.668624893888245
140.012	0.1079844974290211	-0.2104465005633592	1.337807589237287	0.8449643863321413	0.9578153317799728	-1.205837921926088	0.4653283979423689	0.2466330095601098	0.2126888905692257	0.6334321114030392	0.6334321097077535	0.2037867926848846	-0.4784356512203317	0.1316699004405779	-0.2959974015879552	-0.1993446865935434	1.289456589625067	1.289456589660228	-0.4225513862212476	-0.6701971537124762
140.016	0.1153250198137406	-0.2126244894067317	1.334733424758077	0.8452593754024786	0.9563813387673158	-1.204944539382246	0.459529122049259	0.2543849076287109	0.2135891583244056	0.6426491068051766	0.6426491052046446	0.2165262465050541	-0.4750604702951294	0.1475130762008311	-0.3107749580467864	-0.1998117908382218	1.310673890472456	1.310673890412502	-0.4023269385112684	-0.6715639578102193
140.02	0.1218744734160858	-0.2145123458161727	1.332291989026397	0.8454684207684987	0.9551058498459424	-1.204112723615869	0.4530292112526498	0.2608411557897524	0.2143622608512747	0.6504902992153622	0.6504902976908922	0.2289412563370318	-0.4714490965979142	0.1634901343289672	-0.3241555922465759	-0.1994235603905473	1.330437586382596	1.330437586230192	-0.3829462256508873	-0.6726879513329145
140.024	0.1275165907286402	-0.2160653652068831	1.330573293499311	0.8455804893214353	0.9540134183452719	-1.203351404951585	0.4457203202473854	0.2658226429025325	0.214986295593884	0.6567511409179012	0.6567511394526859	0.2409559672701491	-0.4675991637667934	0.1796069999584134	-0.3359287060198657	-0.1980983440576589	1.348526488034566	1.348526487794217	-0.3645155114861572	-0.6735390023575319
140.028	0.132155224080533	-0.217247935990269	1.329650500798765	0.8455873219157571	0.9531247080216956	-1.202667861891908	0.4375126637175403	0.2691883853293124	0.2154402041632404	0.6612618250646745	0.6612618236450281	0.252489267651108	-0.4635265703046278	0.1958618937580093	-0.3459176641707622	-0.1957928756996737	1.36475248981794	1.364752489495513	-0.3471129880433494	-0.6740941696507455
140.032	0.135715692369316	-0.2180359265711484	1.329579124910443	0.8454834973328903	0.9524559561896787	-1.202067603351135	0.4283384065842865	0.2708378816098733	0.215703452616376	0.6638901667228695	0.6638901653390405	0.2634544152892304	-0.4592645555486656	0.2122464212957975	-0.3539826751627182	-0.1925018319401351	1.37896253440892	1.378962534010961	-0.3307884562537086	-0.6743374231343012
